<mxfile host="app.diagrams.net" agent="Mozilla/5.0 (Windows NT 10.0; Win64; x64) AppleWebKit/537.36 (KHTML, like Gecko) Chrome/134.0.0.0 Safari/537.36" version="26.1.1">
  <diagram id="C5RBs43oDa-KdzZeNtuy" name="Page-1">
    <mxGraphModel dx="1122" dy="656" grid="1" gridSize="10" guides="1" tooltips="1" connect="1" arrows="1" fold="1" page="1" pageScale="1" pageWidth="827" pageHeight="1169" math="0" shadow="0">
      <root>
        <mxCell id="WIyWlLk6GJQsqaUBKTNV-0" />
        <mxCell id="WIyWlLk6GJQsqaUBKTNV-1" parent="WIyWlLk6GJQsqaUBKTNV-0" />
        <mxCell id="h6km4bi4E-VQPIHkM1ep-67" value="" style="rounded=1;whiteSpace=wrap;html=1;" vertex="1" parent="WIyWlLk6GJQsqaUBKTNV-1">
          <mxGeometry x="390" y="520" width="120" height="180" as="geometry" />
        </mxCell>
        <mxCell id="h6km4bi4E-VQPIHkM1ep-47" value="" style="rounded=0;whiteSpace=wrap;html=1;fillColor=#dae8fc;strokeColor=#6c8ebf;" vertex="1" parent="WIyWlLk6GJQsqaUBKTNV-1">
          <mxGeometry x="230" y="510" width="130" height="70" as="geometry" />
        </mxCell>
        <mxCell id="h6km4bi4E-VQPIHkM1ep-46" value="" style="rounded=0;whiteSpace=wrap;html=1;fillColor=#f5f5f5;fontColor=#333333;strokeColor=#666666;" vertex="1" parent="WIyWlLk6GJQsqaUBKTNV-1">
          <mxGeometry x="230" y="70" width="130" height="390" as="geometry" />
        </mxCell>
        <mxCell id="WIyWlLk6GJQsqaUBKTNV-3" value="로그인/회원가입" style="rounded=1;whiteSpace=wrap;html=1;fontSize=12;glass=0;strokeWidth=1;shadow=0;" parent="WIyWlLk6GJQsqaUBKTNV-1" vertex="1">
          <mxGeometry x="70" y="200" width="120" height="40" as="geometry" />
        </mxCell>
        <mxCell id="h6km4bi4E-VQPIHkM1ep-24" style="edgeStyle=orthogonalEdgeStyle;rounded=0;orthogonalLoop=1;jettySize=auto;html=1;exitX=1;exitY=0.5;exitDx=0;exitDy=0;entryX=0;entryY=0.5;entryDx=0;entryDy=0;" edge="1" parent="WIyWlLk6GJQsqaUBKTNV-1" source="h6km4bi4E-VQPIHkM1ep-0" target="h6km4bi4E-VQPIHkM1ep-23">
          <mxGeometry relative="1" as="geometry">
            <mxPoint x="400" y="105" as="targetPoint" />
          </mxGeometry>
        </mxCell>
        <mxCell id="h6km4bi4E-VQPIHkM1ep-0" value="홈페이지" style="rounded=1;whiteSpace=wrap;html=1;" vertex="1" parent="WIyWlLk6GJQsqaUBKTNV-1">
          <mxGeometry x="240" y="80" width="110" height="50" as="geometry" />
        </mxCell>
        <mxCell id="h6km4bi4E-VQPIHkM1ep-17" style="edgeStyle=orthogonalEdgeStyle;rounded=0;orthogonalLoop=1;jettySize=auto;html=1;exitX=0.5;exitY=0;exitDx=0;exitDy=0;entryX=0.5;entryY=1;entryDx=0;entryDy=0;" edge="1" parent="WIyWlLk6GJQsqaUBKTNV-1" source="h6km4bi4E-VQPIHkM1ep-2" target="WIyWlLk6GJQsqaUBKTNV-3">
          <mxGeometry relative="1" as="geometry" />
        </mxCell>
        <mxCell id="h6km4bi4E-VQPIHkM1ep-2" value="스플래쉬 페이지" style="rounded=1;whiteSpace=wrap;html=1;" vertex="1" parent="WIyWlLk6GJQsqaUBKTNV-1">
          <mxGeometry x="70" y="320" width="120" height="40" as="geometry" />
        </mxCell>
        <mxCell id="h6km4bi4E-VQPIHkM1ep-69" style="edgeStyle=orthogonalEdgeStyle;rounded=0;orthogonalLoop=1;jettySize=auto;html=1;exitX=1;exitY=0.5;exitDx=0;exitDy=0;entryX=0;entryY=0.5;entryDx=0;entryDy=0;" edge="1" parent="WIyWlLk6GJQsqaUBKTNV-1" source="h6km4bi4E-VQPIHkM1ep-8" target="h6km4bi4E-VQPIHkM1ep-68">
          <mxGeometry relative="1" as="geometry" />
        </mxCell>
        <mxCell id="h6km4bi4E-VQPIHkM1ep-8" value="검색" style="rounded=1;whiteSpace=wrap;html=1;" vertex="1" parent="WIyWlLk6GJQsqaUBKTNV-1">
          <mxGeometry x="240" y="160" width="110" height="50" as="geometry" />
        </mxCell>
        <mxCell id="h6km4bi4E-VQPIHkM1ep-71" style="edgeStyle=orthogonalEdgeStyle;rounded=0;orthogonalLoop=1;jettySize=auto;html=1;exitX=1;exitY=0.5;exitDx=0;exitDy=0;entryX=0;entryY=0.5;entryDx=0;entryDy=0;" edge="1" parent="WIyWlLk6GJQsqaUBKTNV-1" source="h6km4bi4E-VQPIHkM1ep-9" target="h6km4bi4E-VQPIHkM1ep-70">
          <mxGeometry relative="1" as="geometry" />
        </mxCell>
        <mxCell id="h6km4bi4E-VQPIHkM1ep-9" value="즐겨찾기" style="rounded=1;whiteSpace=wrap;html=1;" vertex="1" parent="WIyWlLk6GJQsqaUBKTNV-1">
          <mxGeometry x="240" y="240" width="110" height="50" as="geometry" />
        </mxCell>
        <mxCell id="h6km4bi4E-VQPIHkM1ep-73" style="edgeStyle=orthogonalEdgeStyle;rounded=0;orthogonalLoop=1;jettySize=auto;html=1;exitX=1;exitY=0.5;exitDx=0;exitDy=0;entryX=0;entryY=0.5;entryDx=0;entryDy=0;" edge="1" parent="WIyWlLk6GJQsqaUBKTNV-1" source="h6km4bi4E-VQPIHkM1ep-10" target="h6km4bi4E-VQPIHkM1ep-72">
          <mxGeometry relative="1" as="geometry" />
        </mxCell>
        <mxCell id="h6km4bi4E-VQPIHkM1ep-10" value="주문내역" style="rounded=1;whiteSpace=wrap;html=1;" vertex="1" parent="WIyWlLk6GJQsqaUBKTNV-1">
          <mxGeometry x="240" y="320" width="110" height="50" as="geometry" />
        </mxCell>
        <mxCell id="h6km4bi4E-VQPIHkM1ep-19" style="edgeStyle=orthogonalEdgeStyle;rounded=0;orthogonalLoop=1;jettySize=auto;html=1;exitX=1;exitY=0.5;exitDx=0;exitDy=0;entryX=0;entryY=0.25;entryDx=0;entryDy=0;" edge="1" parent="WIyWlLk6GJQsqaUBKTNV-1" source="h6km4bi4E-VQPIHkM1ep-11" target="h6km4bi4E-VQPIHkM1ep-12">
          <mxGeometry relative="1" as="geometry" />
        </mxCell>
        <mxCell id="h6km4bi4E-VQPIHkM1ep-11" value="My 이츠&amp;nbsp;" style="rounded=1;whiteSpace=wrap;html=1;" vertex="1" parent="WIyWlLk6GJQsqaUBKTNV-1">
          <mxGeometry x="240" y="400" width="110" height="50" as="geometry" />
        </mxCell>
        <mxCell id="h6km4bi4E-VQPIHkM1ep-12" value="주소관리&lt;div&gt;로그인&lt;/div&gt;&lt;div&gt;사장님페이지&lt;/div&gt;" style="rounded=1;whiteSpace=wrap;html=1;" vertex="1" parent="WIyWlLk6GJQsqaUBKTNV-1">
          <mxGeometry x="390" y="405" width="120" height="80" as="geometry" />
        </mxCell>
        <mxCell id="h6km4bi4E-VQPIHkM1ep-14" value="" style="endArrow=classic;html=1;rounded=0;exitX=0.5;exitY=0;exitDx=0;exitDy=0;entryX=0;entryY=0.5;entryDx=0;entryDy=0;" edge="1" parent="WIyWlLk6GJQsqaUBKTNV-1" source="WIyWlLk6GJQsqaUBKTNV-3" target="h6km4bi4E-VQPIHkM1ep-0">
          <mxGeometry width="50" height="50" relative="1" as="geometry">
            <mxPoint x="210" y="280" as="sourcePoint" />
            <mxPoint x="230" y="100" as="targetPoint" />
            <Array as="points">
              <mxPoint x="130" y="105" />
            </Array>
          </mxGeometry>
        </mxCell>
        <mxCell id="h6km4bi4E-VQPIHkM1ep-32" style="edgeStyle=orthogonalEdgeStyle;rounded=0;orthogonalLoop=1;jettySize=auto;html=1;exitX=1;exitY=0.5;exitDx=0;exitDy=0;entryX=0;entryY=0.5;entryDx=0;entryDy=0;" edge="1" parent="WIyWlLk6GJQsqaUBKTNV-1" source="h6km4bi4E-VQPIHkM1ep-23" target="h6km4bi4E-VQPIHkM1ep-27">
          <mxGeometry relative="1" as="geometry" />
        </mxCell>
        <mxCell id="h6km4bi4E-VQPIHkM1ep-23" value="가게페이지&lt;div&gt;(메뉴선택)&lt;/div&gt;" style="rounded=1;whiteSpace=wrap;html=1;" vertex="1" parent="WIyWlLk6GJQsqaUBKTNV-1">
          <mxGeometry x="400" y="85" width="100" height="40" as="geometry" />
        </mxCell>
        <mxCell id="h6km4bi4E-VQPIHkM1ep-34" style="edgeStyle=orthogonalEdgeStyle;rounded=0;orthogonalLoop=1;jettySize=auto;html=1;exitX=1;exitY=0.5;exitDx=0;exitDy=0;entryX=0;entryY=0.5;entryDx=0;entryDy=0;" edge="1" parent="WIyWlLk6GJQsqaUBKTNV-1" source="h6km4bi4E-VQPIHkM1ep-27" target="h6km4bi4E-VQPIHkM1ep-28">
          <mxGeometry relative="1" as="geometry" />
        </mxCell>
        <mxCell id="h6km4bi4E-VQPIHkM1ep-27" value="메뉴수량선택" style="rounded=1;whiteSpace=wrap;html=1;" vertex="1" parent="WIyWlLk6GJQsqaUBKTNV-1">
          <mxGeometry x="550" y="85" width="100" height="40" as="geometry" />
        </mxCell>
        <mxCell id="h6km4bi4E-VQPIHkM1ep-35" style="edgeStyle=orthogonalEdgeStyle;rounded=0;orthogonalLoop=1;jettySize=auto;html=1;exitX=0.5;exitY=1;exitDx=0;exitDy=0;entryX=0.5;entryY=0;entryDx=0;entryDy=0;" edge="1" parent="WIyWlLk6GJQsqaUBKTNV-1" source="h6km4bi4E-VQPIHkM1ep-28" target="h6km4bi4E-VQPIHkM1ep-29">
          <mxGeometry relative="1" as="geometry" />
        </mxCell>
        <mxCell id="h6km4bi4E-VQPIHkM1ep-28" value="장바구니 페이지&amp;nbsp;" style="rounded=1;whiteSpace=wrap;html=1;" vertex="1" parent="WIyWlLk6GJQsqaUBKTNV-1">
          <mxGeometry x="690" y="75" width="120" height="60" as="geometry" />
        </mxCell>
        <mxCell id="h6km4bi4E-VQPIHkM1ep-37" style="edgeStyle=orthogonalEdgeStyle;rounded=0;orthogonalLoop=1;jettySize=auto;html=1;exitX=0.5;exitY=1;exitDx=0;exitDy=0;entryX=0.5;entryY=0;entryDx=0;entryDy=0;" edge="1" parent="WIyWlLk6GJQsqaUBKTNV-1" source="h6km4bi4E-VQPIHkM1ep-29" target="h6km4bi4E-VQPIHkM1ep-36">
          <mxGeometry relative="1" as="geometry" />
        </mxCell>
        <mxCell id="h6km4bi4E-VQPIHkM1ep-29" value="결제주문" style="rounded=1;whiteSpace=wrap;html=1;" vertex="1" parent="WIyWlLk6GJQsqaUBKTNV-1">
          <mxGeometry x="700" y="170" width="100" height="40" as="geometry" />
        </mxCell>
        <mxCell id="h6km4bi4E-VQPIHkM1ep-36" value="배달" style="rounded=1;whiteSpace=wrap;html=1;" vertex="1" parent="WIyWlLk6GJQsqaUBKTNV-1">
          <mxGeometry x="700" y="240" width="100" height="40" as="geometry" />
        </mxCell>
        <mxCell id="h6km4bi4E-VQPIHkM1ep-39" value="사장님페이지" style="rounded=1;whiteSpace=wrap;html=1;" vertex="1" parent="WIyWlLk6GJQsqaUBKTNV-1">
          <mxGeometry x="240" y="520" width="110" height="50" as="geometry" />
        </mxCell>
        <mxCell id="h6km4bi4E-VQPIHkM1ep-40" value="" style="endArrow=none;html=1;rounded=0;entryX=0.5;entryY=1;entryDx=0;entryDy=0;exitX=0.5;exitY=0;exitDx=0;exitDy=0;" edge="1" parent="WIyWlLk6GJQsqaUBKTNV-1" source="h6km4bi4E-VQPIHkM1ep-39" target="h6km4bi4E-VQPIHkM1ep-12">
          <mxGeometry width="50" height="50" relative="1" as="geometry">
            <mxPoint x="450" y="530" as="sourcePoint" />
            <mxPoint x="500" y="480" as="targetPoint" />
            <Array as="points">
              <mxPoint x="295" y="500" />
              <mxPoint x="450" y="500" />
            </Array>
          </mxGeometry>
        </mxCell>
        <mxCell id="h6km4bi4E-VQPIHkM1ep-55" style="edgeStyle=orthogonalEdgeStyle;rounded=0;orthogonalLoop=1;jettySize=auto;html=1;exitX=1;exitY=0.5;exitDx=0;exitDy=0;entryX=0;entryY=0.5;entryDx=0;entryDy=0;" edge="1" parent="WIyWlLk6GJQsqaUBKTNV-1" source="h6km4bi4E-VQPIHkM1ep-48" target="h6km4bi4E-VQPIHkM1ep-53">
          <mxGeometry relative="1" as="geometry" />
        </mxCell>
        <mxCell id="h6km4bi4E-VQPIHkM1ep-48" value="메뉴관리" style="rounded=1;whiteSpace=wrap;html=1;" vertex="1" parent="WIyWlLk6GJQsqaUBKTNV-1">
          <mxGeometry x="400" y="530" width="100" height="40" as="geometry" />
        </mxCell>
        <mxCell id="h6km4bi4E-VQPIHkM1ep-64" style="edgeStyle=orthogonalEdgeStyle;rounded=0;orthogonalLoop=1;jettySize=auto;html=1;exitX=1;exitY=0.5;exitDx=0;exitDy=0;entryX=0;entryY=0.5;entryDx=0;entryDy=0;" edge="1" parent="WIyWlLk6GJQsqaUBKTNV-1" source="h6km4bi4E-VQPIHkM1ep-49" target="h6km4bi4E-VQPIHkM1ep-63">
          <mxGeometry relative="1" as="geometry" />
        </mxCell>
        <mxCell id="h6km4bi4E-VQPIHkM1ep-49" value="가게설정" style="rounded=1;whiteSpace=wrap;html=1;" vertex="1" parent="WIyWlLk6GJQsqaUBKTNV-1">
          <mxGeometry x="400" y="590" width="100" height="40" as="geometry" />
        </mxCell>
        <mxCell id="h6km4bi4E-VQPIHkM1ep-50" value="수익관리" style="rounded=1;whiteSpace=wrap;html=1;" vertex="1" parent="WIyWlLk6GJQsqaUBKTNV-1">
          <mxGeometry x="400" y="650" width="100" height="40" as="geometry" />
        </mxCell>
        <mxCell id="h6km4bi4E-VQPIHkM1ep-56" style="edgeStyle=orthogonalEdgeStyle;rounded=0;orthogonalLoop=1;jettySize=auto;html=1;exitX=1;exitY=0.5;exitDx=0;exitDy=0;entryX=0;entryY=0.5;entryDx=0;entryDy=0;" edge="1" parent="WIyWlLk6GJQsqaUBKTNV-1" source="h6km4bi4E-VQPIHkM1ep-53" target="h6km4bi4E-VQPIHkM1ep-54">
          <mxGeometry relative="1" as="geometry" />
        </mxCell>
        <mxCell id="h6km4bi4E-VQPIHkM1ep-53" value="카테고리 추가" style="rounded=1;whiteSpace=wrap;html=1;" vertex="1" parent="WIyWlLk6GJQsqaUBKTNV-1">
          <mxGeometry x="520" y="530" width="100" height="40" as="geometry" />
        </mxCell>
        <mxCell id="h6km4bi4E-VQPIHkM1ep-54" value="메뉴추가" style="rounded=1;whiteSpace=wrap;html=1;" vertex="1" parent="WIyWlLk6GJQsqaUBKTNV-1">
          <mxGeometry x="640" y="530" width="100" height="40" as="geometry" />
        </mxCell>
        <mxCell id="h6km4bi4E-VQPIHkM1ep-63" value="가게정보/&lt;div&gt;가게주소&lt;/div&gt;" style="rounded=1;whiteSpace=wrap;html=1;" vertex="1" parent="WIyWlLk6GJQsqaUBKTNV-1">
          <mxGeometry x="520" y="590" width="100" height="40" as="geometry" />
        </mxCell>
        <mxCell id="h6km4bi4E-VQPIHkM1ep-68" value="가게 검색" style="rounded=1;whiteSpace=wrap;html=1;" vertex="1" parent="WIyWlLk6GJQsqaUBKTNV-1">
          <mxGeometry x="400" y="160" width="120" height="50" as="geometry" />
        </mxCell>
        <mxCell id="h6km4bi4E-VQPIHkM1ep-70" value="즐겨찾기 가게 표시" style="rounded=1;whiteSpace=wrap;html=1;" vertex="1" parent="WIyWlLk6GJQsqaUBKTNV-1">
          <mxGeometry x="400" y="240" width="120" height="50" as="geometry" />
        </mxCell>
        <mxCell id="h6km4bi4E-VQPIHkM1ep-72" value="주문내역 표시" style="rounded=1;whiteSpace=wrap;html=1;" vertex="1" parent="WIyWlLk6GJQsqaUBKTNV-1">
          <mxGeometry x="400" y="320" width="120" height="50" as="geometry" />
        </mxCell>
      </root>
    </mxGraphModel>
  </diagram>
</mxfile>
